<?xml version="1.0" encoding="utf-8"?>
<!-- Generator: Adobe Illustrator 23.0.1, SVG Export Plug-In . SVG Version: 6.00 Build 0)  -->
<svg version="1.1" id="Layer_1" xmlns="http://www.w3.org/2000/svg" xmlns:xlink="http://www.w3.org/1999/xlink" x="0px" y="0px"
	 viewBox="0 0 277 276" xml:space="preserve">

<path id="shadow_x5F_floor" class="st0" d="M150,180.3c-21.7-17.5-51.1-2.6-69,13c-2.6,2.3-5,4.8-8.1,6.4c-1.9,1-4,1.6-5.8,2.8
	s-3.3,3.2-3.1,5.3c0.2,2.1,2,3.7,4,4.4s4.1,0.6,6.2,0.6c13.2,0,26.3,1.7,37,9.8c3.5,2.6,6.8,5.8,10.9,7.1s9.6-0.1,11-4.3
	c0.5-1.6,0.4-3.3,0.6-4.9c1.9-13.3,24.8-17.3,21.2-33C154.2,184.6,152.5,182.3,150,180.3z"/>
<g id="body">
	<g>
		<g>
			<path class="st1" d="M101.9,105.6c-0.2-0.1-2.5-9.6,1.1-20.1c7.5-21.7,22.7-37.7,24.2-35.5c2.7,4-8.8,45.9-17,49.6"/>
			<path d="M101.9,106.4c-0.1,0-0.2,0-0.3-0.1c-1.1-0.4-1.4-6.6-1.4-6.9c-0.1-3.4,0.1-8.7,2-14.2c6.9-20,20.7-35.7,24.3-36.2
				c0.6-0.1,1.1,0.1,1.4,0.6c2.1,3.1-2.6,20-3.2,21.9c-1.2,4.3-7.7,26-14.2,28.9c-0.4,0.2-0.9,0-1.1-0.4s0-0.9,0.4-1.1
				c3.6-1.6,8.9-12.8,13.2-27.8c3.1-10.9,4.2-18.7,3.5-20.4c-2.6,0.5-16,15.2-22.9,35.1c-3.5,10-1.3,18.9-1.2,19.4
				c0.1,0.2,0.1,0.4,0,0.7C102.5,106.2,102.2,106.4,101.9,106.4z"/>
		</g>
		<g>
			<path d="M110,72.7c4.5-3.2,9.8-5.6,15.4-6.6c2-7.9,2.9-14.5,1.9-16c-1.2-1.8-11.7,8.6-19.6,24.4C108.4,73.9,109.2,73.3,110,72.7z
				"/>
			<path d="M106.1,76.6l1.1-2.3c7.1-14.2,16.6-24.7,19.5-24.9c0.6,0,0.9,0.3,1,0.4c1.5,2.2-0.8,12.2-1.8,16.4l-0.1,0.3l-0.3,0.1
				c-5.4,1-10.6,3.3-15.2,6.5l0,0c-0.7,0.5-1.4,1.1-2.3,1.8L106.1,76.6z M110,72.7L110,72.7L110,72.7z M126.7,50.4
				c-1.6,0-10.1,8.3-17.4,22.2c0.1-0.1,0.3-0.2,0.4-0.3l0,0c4.6-3.3,9.8-5.5,15.2-6.7C127.2,56.5,127.5,51.4,126.7,50.4
				C126.8,50.4,126.8,50.4,126.7,50.4z"/>
		</g>
	</g>
	<g>
		<g>
			<path class="st1" d="M144.7,181L144.7,181c0.1-0.5,0.4-0.8,0.8-1l17.7-9.4c0.9-0.5,1.1-1.7,0.4-2.5L149.7,154
				c-0.7-0.7-0.6-1.9,0.2-2.4l12.5-8.4c0.5-0.4,0.8-1,0.7-1.6l-4.7-25.8c-0.2-1,0.6-1.9,1.7-1.9l52.2,3.7c1.4,0.1,2,1.8,1,2.7
				l-17.6,16.4c-0.4,0.4-1.1,0.5-1.7,0.3l-19.2-7.8c-1.3-0.5-2.6,0.8-2.1,2c2.4,6,7.2,18,6.9,18.1s-10.4,4.5-14.4,6.2
				c-0.9,0.4-1.2,1.4-0.7,2.2l6.8,11.9c0.5,0.8,0.1,1.8-0.7,2.2L147,182.7C145.7,183.5,144.3,182.3,144.7,181z"/>
			<path d="M146.2,183.9c-0.6,0-1.1-0.2-1.6-0.6c-0.7-0.6-1-1.6-0.7-2.5v-0.1c0.2-0.6,0.6-1.1,1.2-1.4l17.7-9.4
				c0.2-0.1,0.4-0.3,0.4-0.6c0-0.2,0-0.5-0.2-0.6l-13.9-14.1c-0.5-0.5-0.8-1.2-0.7-1.9s0.4-1.4,1.1-1.7l12.5-8.4
				c0.2-0.2,0.4-0.5,0.3-0.8l-4.7-25.8c-0.1-0.7,0.1-1.5,0.6-2c0.5-0.6,1.2-0.8,1.9-0.8l52.2,3.7c1,0.1,1.8,0.7,2.1,1.6
				s0.1,1.9-0.6,2.5l-17.6,16.3c-0.7,0.6-1.7,0.8-2.5,0.5l-19.2-7.8c-0.4-0.2-0.7,0.1-0.8,0.2c-0.1,0.1-0.3,0.4-0.2,0.8
				c7.5,18.7,7.4,18.8,6.4,19.2l-14.4,6.2c-0.2,0.1-0.3,0.2-0.4,0.4c-0.1,0.2-0.1,0.4,0.1,0.6l6.8,11.9c0.3,0.6,0.4,1.3,0.2,1.9
				c-0.2,0.6-0.7,1.2-1.3,1.4l-23.6,10.9C146.9,183.8,146.6,183.9,146.2,183.9z M160,114.8c-0.2,0-0.4,0.1-0.6,0.2
				c-0.2,0.2-0.2,0.4-0.2,0.6l4.7,25.8c0.2,0.9-0.2,1.9-1,2.4l-12.5,8.4c-0.3,0.2-0.3,0.4-0.3,0.6s0,0.4,0.2,0.6l13.9,14.1
				c0.5,0.5,0.8,1.3,0.7,2c-0.1,0.8-0.6,1.4-1.2,1.8l-17.7,9.4c-0.2,0.1-0.3,0.3-0.4,0.4v0.1c-0.1,0.4,0.2,0.7,0.2,0.8
				c0.1,0.1,0.4,0.3,0.8,0.1l23.6-10.9c0.2-0.1,0.3-0.2,0.4-0.5c0.1-0.2,0-0.4-0.1-0.6l-6.8-11.9c-0.3-0.6-0.4-1.3-0.2-1.9
				c0.2-0.6,0.7-1.2,1.3-1.4l13.8-5.9c-0.5-1.6-2.4-6.8-6.7-17.3c-0.4-0.9-0.2-1.9,0.5-2.6s1.7-0.9,2.6-0.5l19.2,7.8
				c0.3,0.1,0.6,0,0.8-0.2l17.6-16.3c0.3-0.3,0.2-0.7,0.2-0.8c0-0.1-0.2-0.5-0.7-0.5L160,114.8L160,114.8z M144.7,181L144.7,181
				L144.7,181z"/>
		</g>
		<g>
			<path class="st2" d="M164.4,157.8c-0.5-0.8-0.1-1.8,0.7-2.2c0.2-0.1,0.7-0.3,0.7-0.3l-4,1.2l-3.4-4.2l-0.9,6c0,0-8.4-4.8-7.9-4.3
				l13.9,14.1c0.7,0.8,0.6,2-0.4,2.5l-17.7,9.4c-0.4,0.2-0.6,0.5-0.8,0.9c0,0,0,0,0,0.1c-0.4,1.3,1,2.4,2.2,1.9l23.6-10.9
				c0.8-0.4,1.2-1.4,0.7-2.2L164.4,157.8z"/>
			<path d="M146.2,183.9c-0.6,0-1.1-0.2-1.6-0.6c-0.7-0.6-1-1.6-0.7-2.5c0.2-0.7,0.6-1.2,1.2-1.5l17.7-9.4c0.2-0.1,0.4-0.3,0.4-0.6
				c0-0.2,0-0.5-0.2-0.7L148.6,154l0.4-0.6c0.5-0.7,0.5-0.7,7.9,3.6l0.9-6.7l4.2,5.2l3.5-1l0.6,1.5l-0.7,0.3
				c-0.2,0.1-0.3,0.2-0.4,0.5s-0.1,0.4,0.1,0.6l6.8,11.9c0.3,0.6,0.4,1.3,0.2,1.9c-0.2,0.6-0.7,1.2-1.3,1.4l-23.6,10.9
				C146.9,183.8,146.6,183.9,146.2,183.9z M154.1,157.3l10.1,10.3c0.5,0.5,0.8,1.3,0.7,2c-0.1,0.8-0.6,1.4-1.2,1.8l-17.7,9.5
				c-0.2,0.1-0.3,0.3-0.4,0.4c-0.1,0.5,0.1,0.8,0.2,0.8s0.4,0.3,0.8,0.1l23.6-10.9c0.2-0.1,0.3-0.2,0.4-0.5c0.1-0.2,0-0.4-0.1-0.6
				l-6.8-11.9c-0.2-0.4-0.3-0.9-0.3-1.3l-1.9,0.5l-2.5-3.1l-0.8,5.4l-1-0.6C156.1,158.5,155.1,157.8,154.1,157.3z"/>
		</g>
	</g>
	<g>
		<path class="st1" d="M108.4,185.4c0,0-11.1,4.6-11.8,2.9c-0.7-1.6,7.8-5,7.8-5s-7.9,0.8-8-7.8c0-8.6,4.1-11.6,4.1-11.6"/>
		<path d="M97.6,189.5c-1.4,0-1.6-0.5-1.8-0.8c-0.1-0.2-0.2-0.6,0-1.1c0.5-1.2,3.1-2.7,5.4-3.7c-1-0.3-2.1-0.8-3.1-1.7
			c-1.7-1.5-2.5-3.7-2.5-6.6c0-8.9,4.2-12.2,4.4-12.3c0.4-0.3,0.9-0.2,1.1,0.2c0.3,0.4,0.2,0.9-0.2,1.1c0,0-3.8,3-3.8,11
			c0,2.4,0.7,4.2,2,5.4c2.1,1.9,5.1,1.6,5.1,1.6l5.8-0.6l-5.4,2.1c-3.3,1.3-6.4,2.9-7.2,3.8l0,0c1.6,0,6.4-1.6,10.5-3.2
			c0.4-0.2,0.9,0,1.1,0.4s0,0.9-0.4,1.1C102.4,188.8,99.2,189.5,97.6,189.5z"/>
	</g>
	<g>
		<path class="st1" d="M99.5,170c0.1,14.6,8.8,21.8,23.2,21.7c10.3-0.1,36.3-3,36.2-22c-0.1-11.3-13.9-38.4-34.3-38.3
			S99.4,155.4,99.5,170z"/>
		<path d="M122.4,192.5c-7.4,0-13.2-1.9-17.3-5.6c-4.3-3.9-6.5-9.6-6.5-17c-0.1-18.1,6.6-39.3,25.9-39.4h0.1
			c20.9,0,34.9,27.8,35,39.1c0,8.6-4.9,14.9-14.7,18.9c-9,3.6-19.3,3.9-22.3,3.9C122.6,192.5,122.5,192.5,122.4,192.5z M124.7,132.3
			L124.7,132.3c-8.8,0-15.4,4.5-19.6,13.4c-4.4,9.1-4.8,20.1-4.8,24.4c0,6.9,2,12.2,6,15.8c3.8,3.4,9.2,5.1,16.2,5.1
			c0.1,0,0.1,0,0.2,0c2.9,0,13-0.3,21.7-3.8c9.1-3.6,13.7-9.5,13.7-17.4C158,158.9,144.7,132.3,124.7,132.3z"/>
	</g>
	<g>
		<ellipse class="st3" cx="122.7" cy="150" rx="14.1" ry="18.8"/>
	</g>
	<g>
		<g>
			<path class="st4" d="M121,195.7L121,195.7c-6.5,1.9-13.3-1.7-15.2-8.2l-4.1-13.6c-1.9-6.5,1.7-13.3,8.2-15.2l0,0
				c6.5-1.9,13.3,1.7,15.2,8.2l4.1,13.6C131.2,187,127.5,193.8,121,195.7z"/>
			<path d="M117.5,197.1c-2.1,0-4.2-0.5-6.2-1.6c-3.1-1.7-5.3-4.4-6.3-7.8l-4.1-13.6c-1-3.3-0.6-6.9,1-9.9c1.7-3.1,4.4-5.3,7.8-6.3
				c6.9-2.1,14.2,1.9,16.2,8.8l4.1,13.6c2.1,6.9-1.9,14.2-8.8,16.2C120,196.9,118.7,197.1,117.5,197.1z M113.4,159
				c-1.1,0-2.2,0.2-3.3,0.5c-2.9,0.9-5.3,2.8-6.8,5.5c-1.4,2.7-1.8,5.8-0.9,8.7l4.1,13.6c1.8,6,8.2,9.5,14.2,7.7s9.5-8.2,7.7-14.2
				l-4.1-13.6C122.9,162.2,118.3,159,113.4,159z"/>
		</g>
		<g>
			<g>
				<path class="st5" d="M118.4,196.4L118.4,196.4c-6.5,1.9-13.3-1.7-15.2-8.2l-4.1-13.6c-1.9-6.5,1.7-13.3,8.2-15.2l0,0
					c6.5-1.9,13.3,1.7,15.2,8.2l4.1,13.6C128.6,187.6,124.9,194.5,118.4,196.4z"/>
				<path d="M114.9,197.7c-2.1,0-4.2-0.5-6.2-1.6c-3.1-1.6-5.3-4.4-6.3-7.8l-4.1-13.6c-1-3.3-0.6-6.9,1-9.9c1.7-3.1,4.4-5.3,7.8-6.3
					c6.9-2.1,14.2,1.9,16.2,8.8l4.1,13.6c2.1,6.9-1.9,14.2-8.8,16.2C117.4,197.6,116.1,197.7,114.9,197.7z M110.8,159.7
					c-1.1,0-2.2,0.2-3.3,0.5c-2.9,0.9-5.3,2.8-6.8,5.5s-1.8,5.8-0.9,8.7L104,188c0.9,2.9,2.8,5.3,5.5,6.8c2.7,1.4,5.8,1.8,8.7,0.9
					c6-1.8,9.5-8.2,7.7-14.2l-4.1-13.6C120.3,162.9,115.8,159.7,110.8,159.7z"/>
			</g>
			<g>
				<line class="st6" x1="98.6" y1="170.1" x2="120.4" y2="163.5"/>
				<path d="M98.6,170.9c-0.4,0-0.7-0.2-0.8-0.6c-0.1-0.4,0.1-0.9,0.5-1l21.8-6.5c0.4-0.1,0.9,0.1,1,0.5s-0.1,0.9-0.5,1l-21.8,6.5
					C98.8,170.9,98.7,170.9,98.6,170.9z"/>
			</g>
			<g>
				<line class="st6" x1="105.3" y1="192.3" x2="127.1" y2="185.7"/>
				<path d="M105.3,193.1c-0.3,0-0.7-0.2-0.8-0.6c-0.1-0.4,0.1-0.9,0.6-1l21.8-6.5c0.4-0.1,0.9,0.1,1,0.6c0.1,0.4-0.1,0.9-0.5,1
					l-21.8,6.5C105.5,193.1,105.4,193.1,105.3,193.1z"/>
			</g>
			<g>
				<line class="st6" x1="100" y1="177.7" x2="123.5" y2="170.7"/>
				<path d="M100,178.5c-0.4,0-0.7-0.2-0.8-0.6c-0.1-0.4,0.1-0.9,0.5-1l23.5-7c0.4-0.1,0.9,0.1,1,0.6c0.1,0.4-0.1,0.9-0.6,1l-23.4,7
					C100.2,178.5,100.1,178.5,100,178.5z"/>
			</g>
			<g>
				<line class="st6" x1="102.3" y1="185.1" x2="125.7" y2="178.1"/>
				<path d="M102.3,185.9c-0.3,0-0.7-0.2-0.8-0.6c-0.1-0.4,0.1-0.9,0.5-1l23.5-7c0.4-0.1,0.9,0.1,1,0.6c0.1,0.4-0.1,0.9-0.6,1
					l-23.4,7C102.4,185.9,102.3,185.9,102.3,185.9z"/>
			</g>
		</g>
		<g>
			<path d="M114.9,197.7c-2.1,0-4.2-0.5-6.2-1.6c-3.1-1.6-5.3-4.4-6.3-7.8l-4.1-13.6c-1-3.3-0.6-6.9,1-9.9c1.7-3.1,4.4-5.3,7.8-6.3
				c6.9-2.1,14.2,1.9,16.2,8.8l4.1,13.6c2.1,6.9-1.9,14.2-8.8,16.2C117.4,197.6,116.1,197.7,114.9,197.7z M110.8,159.7
				c-1.1,0-2.2,0.2-3.3,0.5c-2.9,0.9-5.3,2.8-6.8,5.5s-1.8,5.8-0.9,8.7L104,188c0.9,2.9,2.8,5.3,5.5,6.8c2.7,1.4,5.8,1.8,8.7,0.9
				c6-1.8,9.5-8.2,7.7-14.2l-4.1-13.6C120.3,162.9,115.8,159.7,110.8,159.7z"/>
		</g>
	</g>
	<g>
		<path class="st1" d="M101.1,157.5c0,0,1.3-4.7,4.9-4.7s6.8,3.2,6.8,6.8s-2.7,6.9-7.6,6.9s-9.5-5.2-9.5-10.7
			c0-7.7,4.1-10.3,9.8-12.6l3.9-1.4"/>
		<path d="M105.2,167.3c-2.6,0-5.2-1.3-7.2-3.5s-3.1-5.1-3.1-8c0-8.5,4.9-11.2,10.3-13.3l3.9-1.4c0.4-0.2,0.9,0.1,1,0.5
			s-0.1,0.9-0.5,1l-3.9,1.4c-6,2.4-9.3,5-9.3,11.8c0,2.4,1,5,2.7,6.9s3.9,3,6,3l0,0c2.1,0,3.8-0.7,5.1-1.9c1.1-1.1,1.7-2.6,1.7-4.2
			c0-3.1-2.9-6-6-6l0,0c-2.9,0-4.2,4.1-4.2,4.1c-0.1,0.4-0.6,0.7-1,0.6s-0.7-0.6-0.5-1c0.1-0.2,1.6-5.3,5.7-5.3c4,0,7.6,3.6,7.7,7.6
			c0,2-0.8,3.9-2.2,5.3C109.9,166.5,107.7,167.3,105.2,167.3L105.2,167.3z"/>
	</g>
	<g>
		<path class="st1" d="M113.2,91.9c3.9-1.5,8.6-2.3,14.1-2.3c39.4,0,45,59.4,0.6,59.4c-29,0-33.4-13.1-33.4-18.8
			c0-9.2,3.7-9.8,3.7-15.9c0-6.2,1.8-11.9,5.8-16.3"/>
		<path d="M127.9,149.7c-32.6,0-34.2-16.3-34.2-19.6c0-5.2,1.2-7.8,2.2-10c0.8-1.8,1.5-3.3,1.5-5.8c0-6.7,2.1-12.5,6-16.8
			c0.3-0.3,0.8-0.4,1.2-0.1c0.3,0.3,0.4,0.8,0.1,1.2c-3.6,4-5.6,9.5-5.6,15.7c0,2.9-0.8,4.7-1.7,6.5c-1,2.2-2.1,4.5-2.1,9.3
			c0,3,1.6,18,32.6,18c9.7,0,17.7-2.9,23.1-8.4c4.7-4.8,7.3-11.5,7.3-18.8c0-14.8-10.9-30.5-31-30.5c-5.3,0-9.9,0.8-13.8,2.3
			c-0.4,0.2-0.9,0-1-0.5c-0.2-0.4,0-0.9,0.5-1c4.1-1.6,9-2.4,14.4-2.4c21.2,0,32.6,16.5,32.6,32.1c0,7.7-2.8,14.8-7.8,19.9
			C146.4,146.6,138,149.7,127.9,149.7z"/>
	</g>
	<g>
		<path d="M123.4,138.1c-0.2,0-0.4,0-0.6,0c-1.6-0.1-2.5-0.9-3.4-1.7c-0.8-0.7-1.4-1.2-2.4-1.3c-1.2-0.1-1.8,0.2-2.4,0.5
			c-0.5,0.3-1.1,0.6-2,0.5c-1.7-0.1-3.1-1.8-3.2-1.9c-0.3-0.3-0.2-0.9,0.1-1.1c0.3-0.3,0.9-0.2,1.1,0.1l0,0c0.3,0.3,1.2,1.3,2.1,1.3
			c0.4,0,0.6-0.1,1.1-0.4c0.7-0.4,1.6-0.9,3.3-0.7c1.5,0.1,2.5,0.9,3.4,1.7c0.8,0.7,1.4,1.2,2.4,1.3c2.1,0.2,2.8-0.6,2.8-0.7
			c0.3-0.3,0.8-0.4,1.1-0.1c0.3,0.3,0.4,0.8,0.1,1.1C126.9,137,125.9,138.1,123.4,138.1z"/>
	</g>
	<g>
		<g>
			<path class="st1" d="M155.7,117.7c0.1,0,10.6,0.6,24.6-4.4c17-6.1,34.3-15.6,33.8-17.8s-31.5-1-47.2,5.6
				c-14.1,5.9-14.4,7.2-14.4,7.2"/>
			<path d="M156.5,118.5c-0.2,0-0.5,0-0.7,0h-0.2c-0.4,0-0.7-0.2-0.8-0.6s0.1-0.9,0.5-1c0.1,0,0.2,0,0.5,0
				c3.4,0.1,12.6-0.3,24.1-4.4c16.7-6,31.6-14.4,33.1-16.8c-3.5-1.3-30.9-0.3-46,6.1c-12,5.1-13.8,6.6-14.1,6.9
				c-0.2,0.3-0.6,0.4-0.9,0.3c-0.4-0.1-0.7-0.6-0.5-1c0.3-1.1,5.3-3.7,14.9-7.7c15.2-6.4,43.8-7.8,47.6-5.9c0.4,0.2,0.7,0.5,0.8,0.9
				c0.1,0.6,0.5,2.3-10.7,8.3c-7.1,3.8-15.6,7.6-23.6,10.4C169.4,118,160.5,118.5,156.5,118.5z"/>
		</g>
		<g>
			<path d="M189.4,95.6c-1.1,6-4,12-8.3,17.3c16.7-6.1,33.3-15.3,32.8-17.5C213.7,94.1,202,94,189.4,95.6z"/>
			<path d="M179.5,114.1l1.2-1.5c4.3-5.4,7.1-11.3,8.1-17l0.1-0.4l0.4-0.1c5.9-0.8,12.1-1.2,17-1.2c7.9-0.1,8.1,1,8.2,1.4
				c0.7,2.9-18,12.6-33.2,18.1L179.5,114.1z M189.9,96.1c-1,5.3-3.4,10.6-7.1,15.6c16.6-6.3,30.2-14.3,30.7-16.1
				C212.3,94.8,202.9,94.5,189.9,96.1z"/>
		</g>
	</g>
	<g>
		<path class="st1" d="M135.8,174.6c0,0-4.1,3-4.1,11.6c0,7.1,5.6,7.1,7.4,6.9c0.1,0,0.2,0.1,0.1,0.2c-1.9,1-7.9,4.3-7.3,5.7
			c0.7,1.6,20-6.6,24-10.6s9.2-13.9,0.5-22.4"/>
		<path d="M132.4,200c-0.1,0-0.3,0-0.4,0c-0.6-0.1-0.8-0.5-0.9-0.7c-0.2-0.6-0.8-1.9,5.4-5.5c-1.1-0.2-2.3-0.6-3.3-1.5
			c-1.5-1.3-2.3-3.4-2.3-6.1c0-8.9,4.2-12.1,4.4-12.3c0.4-0.3,0.9-0.2,1.1,0.2c0.3,0.4,0.2,0.9-0.2,1.1c0,0-3.8,3-3.8,11
			c0,2.2,0.6,3.9,1.7,4.9c1.6,1.4,3.8,1.3,4.7,1.2c0.4-0.1,0.8,0.2,1,0.6c0.1,0.4-0.1,0.9-0.4,1.1c-3.9,2.1-5.9,3.6-6.6,4.4
			c3.6-0.5,18.8-7,22.3-10.6c3.8-3.8,8.7-13.1,0.6-21.2c-0.3-0.3-0.3-0.8,0-1.1s0.8-0.3,1.2,0c9.1,9,3.6,19.3-0.5,23.6
			C152.9,192.5,136.5,200,132.4,200z M139.2,193.9L139.2,193.9L139.2,193.9z"/>
	</g>
	<g>
		<circle class="st7" cx="141.9" cy="138.2" r="5.6"/>
	</g>
	<g>
		<g>
			<g>
				<defs>
					<path id="SVGID_1_" d="M100.8,122.8c-1.8,0-4.7,1.6-4.7,1.6s-0.7,2.3-0.7,5.7c0,10.7,10.9,5.4,10.9,5.4
						S106.5,122.8,100.8,122.8z"/>
				</defs>
				<clipPath id="SVGID_2_">
					<use xlink:href="#SVGID_1_"  style="overflow:visible;"/>
				</clipPath>
				<g class="st8">
					<g>
						<circle class="st7" cx="99.2" cy="129" r="5.6"/>
					</g>
				</g>
			</g>
		</g>
	</g>
	<g>
		<path class="st9" d="M125.1,148c11.2,0,22.2-4.3,22.2-4.3s-5.9,8.6-22.2,8.6s-21.3-8.3-21.3-8.3S114,148,125.1,148z"/>
		<path d="M125.1,153.1c-16.5,0-21.8-8.3-22-8.7l-1.2-2.1l2.2,0.9c0.1,0,10.1,3.9,21,3.9s21.8-4.2,21.9-4.3l2.5-1L148,144
			C147.7,144.5,141.6,153.1,125.1,153.1z M106.6,145.9c2.7,2.3,8.4,5.7,18.5,5.7s16.2-3.5,19.2-5.9c-4.1,1.3-11.6,3.2-19.2,3.2
			C117.5,148.8,110.5,147.1,106.6,145.9z"/>
	</g>
	<g>
		<circle class="st5" cx="119.8" cy="154.3" r="3.9"/>
		<path d="M119.8,159c-2.6,0-4.7-2.1-4.7-4.7c0-2.6,2.1-4.7,4.7-4.7s4.7,2.1,4.7,4.7S122.4,159,119.8,159z M119.8,151.2
			c-1.7,0-3.1,1.4-3.1,3.1s1.4,3.1,3.1,3.1s3.1-1.4,3.1-3.1S121.5,151.2,119.8,151.2z"/>
	</g>
	<g>
		<g>
			<path d="M120.2,154.3c-0.6,0.5-1.1,0.9-1.8,1.3c-0.6,0.4-0.1,1.3,0.5,0.9c0.7-0.4,1.4-0.9,2-1.5
				C121.5,154.6,120.7,153.9,120.2,154.3L120.2,154.3z"/>
		</g>
	</g>
	<g>
		<g>
			<path d="M118.2,154.8c0.6,0.7,1.2,1.3,2,1.8c0.6,0.4,1.1-0.6,0.6-0.9c-0.7-0.4-1.3-1-1.8-1.6
				C118.5,153.5,117.8,154.3,118.2,154.8L118.2,154.8z"/>
		</g>
	</g>
	<g>
		<polygon class="st10" points="117.4,130 118.7,130.2 117.9,130.5 		"/>
		<path d="M117.9,131.3c-0.2,0-0.4-0.1-0.6-0.2l-0.5-0.5c-0.2-0.2-0.3-0.6-0.1-0.9c0.2-0.3,0.5-0.5,0.8-0.4l1.3,0.2
			c0.4,0.1,0.7,0.4,0.7,0.7c0,0.4-0.2,0.7-0.6,0.8l-0.9,0.3C118.1,131.3,118,131.3,117.9,131.3z"/>
	</g>
	<g>
		<path d="M108,124.4c-0.2,0-0.5-0.1-0.6-0.3c-1.3-1.5-3.5-2.2-5.4-1.7c-0.4,0.1-0.9-0.2-1-0.6s0.2-0.9,0.6-1
			c0.7-0.2,1.4-0.2,2.1-0.2c-0.6-0.3-1.1-0.6-1.7-0.7c-0.4-0.1-0.7-0.6-0.6-1s0.6-0.7,1-0.6c2,0.5,3.6,1.8,5.1,3
			c0.4,0.3,1.5,1.2,1.3,2.3c0,0.3-0.3,0.6-0.6,0.7C108.2,124.4,108.1,124.4,108,124.4z"/>
	</g>
	<g>
		<path d="M141.4,130.6c-0.2,0-0.4-0.1-0.5-0.2c-1.5-1.3-3.8-1.6-5.6-0.9c-0.3,0.1-0.6,0.1-0.9-0.2c-0.2-0.2-0.3-0.6-0.2-0.9
			c0.4-1.1,1.7-1.4,2.2-1.5c1.8-0.4,3.9-0.8,5.9-0.4c0.4,0.1,0.7,0.5,0.6,1c-0.1,0.4-0.5,0.7-1,0.6c-0.6-0.1-1.2-0.1-1.9-0.1
			c0.7,0.3,1.3,0.6,1.8,1.1c0.3,0.3,0.4,0.8,0.1,1.2C141.9,130.5,141.7,130.6,141.4,130.6z"/>
	</g>
</g>
<path id="shadow" class="st11" d="M160.4,122.1l3.6,19.6c0.1,0.6-0.2,1.2-0.7,1.6l-1.2,0.8c-0.9-3.5-3.1-6.9-6-8.7
	c0.5-0.9,1-1.8,1.4-2.7c-0.1,0.2-0.2,0.4-0.3,0.6c-1.3,2.2-6.2,2.6-4.8,0.5c2.1-3.2,3.6-13.3,3-16.1c7.8-1.1,18.9-2.2,26.8-2.2
	l-6.7-0.5c1.8-0.5,3.7-1.1,5.6-1.8c6-2.2,12.1-4.8,17.4-7.3c0,0,14.5-8.3,14.6-8.3c-10,0-33.9,2.9-60.9,10.9
	c-12.4-16.5-31.8-16.9-39.4-15.9c-0.2,0,11.2-27.7,11.3-40.4c-0.2,0.1-0.3,0.3-0.5,0.4c-0.1,0.1-0.2,0.2-0.3,0.2
	c-0.1,0.1-0.3,0.3-0.4,0.4c-0.1,0.1-0.2,0.2-0.2,0.3c-0.2,0.2-0.3,0.3-0.5,0.5c-0.1,0.1-0.2,0.2-0.2,0.3c-0.2,0.2-0.3,0.4-0.5,0.6
	c-0.1,0.1-0.1,0.1-0.2,0.2c-0.8,1-1.8,2.1-2.7,3.2l-0.1,0.1c-0.2,0.3-0.5,0.6-0.7,0.9l-0.1,0.1c-1.2,1.7-2.5,3.5-3.8,5.5
	c0,0,0,0.1-0.1,0.1c-1.3,2-2.6,4.2-3.8,6.5l-0.1,0.1c-0.2,0.4-0.5,0.9-0.7,1.3c0,0.1-0.1,0.1-0.1,0.2c-0.2,0.4-0.5,0.9-0.7,1.3l0,0
	l0,0c-1.7,3.4-3.3,7.2-4.7,11c-2.2,6.5-2.2,12.6-1.8,16.3c-2,3.6-3,7.8-3,12.3c0,4.9-2.4,6.2-3.3,11.2c-0.8,1-1.3,2.2-1.3,3.5
	c0,1.2,0.4,2.4,1.1,3.3c0.6,3.5,2.8,8.2,9,11.7c-4.8,2.1-8.1,5-8,11.8c0,3.3,1.6,6.5,4,8.5c0,0.2,0,0.4,0,0.6
	c-1.2,1.5-3.2,4.7-3.2,10.7c0,5.1,2.9,6.9,5.2,7.5l0.4,1.3c-2.5,1.1-5.9,2.9-5.4,3.9c0.4,0.8,3.4,0.1,6.3-0.9l0.2,0.8
	c1.5,4.9,5.8,8.2,10.6,8.7l-0.3,0.6h3.1l0.4-0.7c0.5-0.1,1-0.2,1.5-0.3l0,0c0.3-0.1,0.6-0.2,0.8-0.3c0.6-0.1,1.2-0.2,1.7-0.4
	c2.5-0.8,4.6-2.3,6.1-4.2c1.8-0.1,3.8-0.3,5.9-0.6c1.8,2.4,4.8,2.4,6.1,2.2c0.1,0,0.2,0.1,0.1,0.2c-1.9,1-7.9,4.3-7.3,5.7
	c0.7,1.6,19.4-7.9,19.4-7.9s8.7-11.2,3.5-25.1c5.9,4.1,5,11.1,5.1,16c0.7-1.7,1.1-3.7,1.1-5.7l9.4-4.4c0.4-0.2,0.7-0.5,0.8-0.9
	s0.1-0.9-0.1-1.3l-6.8-11.9c-0.1-0.2-0.2-0.4-0.2-0.6c0-0.3,0-0.6,0.2-0.9c0.1-0.1,0.1-0.2,0.2-0.3c0.2-0.2,0.3-0.3,0.6-0.4
	c4-1.7,14.1-6.1,14.4-6.2c0.3-0.1-4.4-12.1-6.9-18.1c-0.5-1.3,0.8-2.6,2.1-2l19.2,7.8c0.6,0.2,1.2,0.1,1.7-0.3l16.6-15.5
	C195.6,120.8,177.9,119.6,160.4,122.1z M152.6,149.8c-0.1-0.1-0.2-0.3-0.3-0.4c0.4-0.1,0.7-0.2,1-0.4L152.6,149.8z M156.2,159.9
	c4.4-12.8,2.3-22.2-9.1-24.7C160.6,129.8,166.1,152.3,156.2,159.9z M164.8,169.8c-0.1,0.2-0.2,0.4-0.4,0.6c-0.1,0.1-0.2,0.2-0.3,0.2
	l-2.9,1.5c-0.4-1-0.8-2.1-1.5-3.1c-0.1-2.1-0.6-4.5-1.5-7.2l6.2,6.3c0.3,0.3,0.4,0.6,0.4,1C164.9,169.3,164.9,169.6,164.8,169.8z"/>
<g id="arm">
	<path class="st1" d="M154.8,146.4c0,0-0.5,3.2-6,3.3c-5.5,0-6.7-4.5-6.7-7c0-2.4,2.5-8.5,8.9-8.6s10.8,7.6,10.8,13.8
		s-4.6,13.9-11.5,13.9s-6.8-2.9-6.8-2.9"/>
	<path d="M150.2,162.6c-3.2,0-5.4-0.6-6.6-1.9c-0.9-0.9-0.9-1.8-0.9-1.9c0-0.5,0.4-0.8,0.9-0.8c0.4,0,0.8,0.4,0.8,0.8l0,0
		c0,0,0.2,2.1,5.9,2.1h0.1c6.2,0,10.7-6.9,10.7-13.1c0-7.4-5.3-13-10-13l0,0c-3.1,0-5.1,1.7-6.2,3.1c-1.3,1.7-1.9,3.6-1.9,4.7
		c0,1,0.3,6.2,5.8,6.2l0,0c4.7,0,5.2-2.5,5.2-2.6c0.1-0.4,0.5-0.7,0.9-0.7c0.4,0.1,0.7,0.5,0.7,0.9c0,0.2-0.7,3.9-6.8,4
		c0,0,0,0-0.1,0c-5.4,0-7.4-4.2-7.4-7.8c0-1.4,0.7-3.7,2.2-5.7c1.3-1.7,3.6-3.7,7.4-3.7l0,0c6.6,0,11.5,7.7,11.6,14.6
		C162.5,154.7,157.3,162.5,150.2,162.6C150.2,162.6,150.2,162.6,150.2,162.6z"/>
</g>
<g id="text">
	<path class="st12" d="M136.7,12.2l0.1-8.2l2,0l-0.1,6.2l2.7,0l0,2L136.7,12.2z"/>
	<path class="st12" d="M150.6,4.6l-0.3,5c-0.1,2.1-1.4,3.2-3.4,3.1s-3.1-1.4-3-3.5l0.3-5l2,0.1l-0.3,5.2c0,0.7,0.4,1.2,1.1,1.2
		c0.7,0,1.2-0.4,1.2-1.1l0.3-5.2L150.6,4.6z"/>
	<path class="st12" d="M158.3,13.5c-0.5,0.1-1.1,0.2-1.7,0.1c-2.4-0.3-3.9-2.4-3.6-4.7c0.3-2.4,2.4-3.9,4.7-3.6
		c0.6,0.1,1.2,0.3,1.7,0.6L159,8.2c-0.3-0.4-0.9-0.8-1.6-0.9c-1.2-0.2-2.2,0.7-2.4,1.9c-0.2,1.2,0.6,2.3,1.8,2.4
		c0.7,0.1,1.4-0.1,1.8-0.4L158.3,13.5z"/>
	<path class="st12" d="M162.5,6.2l2,0.4l-0.6,2.9l2.2-2.6l2.3,0.5l-2.7,2.9l1.2,5.1l-2.3-0.5l-0.6-3.3l-0.6,0.6l-0.5,2.3l-2-0.4
		L162.5,6.2z"/>
	<path class="st12" d="M171.5,13l-1.3-5.2l2.2,0.6l0.6,2.9l2-2.2l2.2,0.6l-3.7,3.9l-0.9,3.3l-2-0.5L171.5,13z"/>
	<path class="st12" d="M185.4,21c-0.6,0-1.2-0.1-1.7-0.3c-2.2-0.8-3.3-3.2-2.5-5.4s3.2-3.3,5.4-2.5c0.6,0.2,1.1,0.5,1.5,0.9
		l-0.8,2.2c-0.2-0.5-0.7-0.9-1.4-1.2c-1.1-0.4-2.3,0.2-2.7,1.3c-0.4,1.1,0.1,2.4,1.2,2.8c0.7,0.3,1.4,0.2,1.8,0L185.4,21z"/>
	<path class="st12" d="M193.8,21.5l-3-1.4l-1.3,2.8l-1.9-0.9l3.4-7.4l1.9,0.9l-1.3,2.8l3,1.4l1.3-2.8l1.9,0.9l-3.4,7.4l-1.9-0.9
		L193.8,21.5z"/>
	<path class="st12" d="M206.4,22.5l-2.4,4.4c-1,1.8-2.7,2.3-4.4,1.3c-1.7-1-2.2-2.6-1.2-4.4l2.4-4.4l1.8,1l-2.5,4.5
		c-0.3,0.6-0.2,1.2,0.5,1.5c0.6,0.4,1.2,0.2,1.6-0.4l2.5-4.5L206.4,22.5z"/>
	<path class="st12" d="M211.2,31l0.5-5.3l1.9,1.3l-0.4,2.9l2.6-1.4l1.9,1.3l-4.8,2.4l-2,2.8l-1.7-1.2L211.2,31z"/>
	<path class="st12" d="M222.3,33.2c1.9,1.5,2.1,4,0.7,5.9c-1.5,1.9-4,2.2-5.9,0.7c-1.9-1.5-2.1-4-0.7-5.9
		C217.9,32,220.4,31.7,222.3,33.2z M218.3,38.2c0.9,0.7,2.2,0.5,3-0.4c0.7-0.9,0.6-2.3-0.3-3c-0.9-0.7-2.3-0.5-3,0.4
		C217.3,36.1,217.4,37.5,218.3,38.2z"/>
	<path class="st12" d="M232.4,42.3l-3.4,3.7c-1.4,1.5-3.1,1.6-4.6,0.2c-1.4-1.3-1.5-3.1-0.1-4.6l3.4-3.7l1.5,1.4l-3.5,3.8
		c-0.4,0.5-0.5,1.1,0.1,1.6s1.2,0.4,1.6,0l3.5-3.8L232.4,42.3z"/>
	<path class="st12" d="M234.8,44.7l2.1,2.2c1.1,1.2,1.2,2.6,0.1,3.7c-0.8,0.8-1.8,0.8-2.4,0.4c0.3,1.2-0.4,2.5-1.5,3.7l-1.4-1.6
		c1-1.3,1.6-2.5,0.9-3.2l-0.1-0.1l-2.1,1.9l-1.4-1.5L234.8,44.7z M235.4,48.3l-0.7-0.7l-1,0.9l0.7,0.7c0.3,0.3,0.6,0.3,1,0
		C235.7,48.9,235.7,48.5,235.4,48.3z"/>
	<path class="st12" d="M245.2,60.8c-0.1-0.6-0.4-1.4-0.9-2c-0.7-1-2-1.1-3-0.4c-1,0.7-1.2,2-0.5,2.9c0.7,0.9,1.6,0.9,2.1,0.6l0.1,0
		l-1-1.4l1.5-1.1l2.3,3c-0.2,0.3-0.6,0.6-0.9,0.8c-1.7,1.3-4,1.4-5.6-0.7c-1.4-1.9-1-4.3,0.9-5.8c1.9-1.4,4.4-1.1,5.9,0.8
		c0.5,0.6,0.9,1.4,1.1,1.9L245.2,60.8z"/>
	<path class="st12" d="M251.9,66.1c1.3,2,0.7,4.5-1.3,5.8c-2,1.3-4.5,0.7-5.8-1.3c-1.3-2-0.7-4.5,1.3-5.8
		C248.1,63.6,250.6,64.1,251.9,66.1z M246.5,69.6c0.6,1,1.9,1.2,3,0.6c1-0.6,1.3-1.9,0.7-2.9c-0.6-1-2-1.2-3-0.6
		C246.2,67.3,245.9,68.6,246.5,69.6z"/>
	<path class="st12" d="M257.4,75.7c1.1,2.1,0.3,4.6-1.8,5.7c-2.1,1.1-4.6,0.4-5.7-1.8c-1.1-2.1-0.3-4.6,1.8-5.7
		C253.9,72.8,256.3,73.6,257.4,75.7z M251.8,78.6c0.6,1.1,1.8,1.4,2.9,0.8c1.1-0.6,1.5-1.8,0.9-2.9c-0.6-1.1-1.9-1.4-2.9-0.8
		C251.7,76.3,251.2,77.6,251.8,78.6z"/>
	<path class="st12" d="M260.6,82.2l1.2,2.9c1,2.3,0,4.4-2.2,5.3c-2.2,0.9-4.4,0.2-5.4-2.1l-1.2-2.9L260.6,82.2z M259.6,84.9
		l-3.9,1.7l0.4,1c0.5,1.2,1.6,1.4,2.7,1c1.1-0.5,1.7-1.4,1.2-2.6L259.6,84.9z"/>
	<path class="st12" d="M258,98l7.8-2.5l0.6,1.9l-5.9,1.9l0.8,2.6l-1.9,0.6L258,98z"/>
	<path class="st12" d="M269.6,109l-4.9,1.2c-2,0.5-3.5-0.4-3.9-2.3c-0.5-1.9,0.4-3.4,2.4-3.9l4.9-1.2l0.5,2l-5,1.2
		c-0.6,0.2-1,0.7-0.8,1.4c0.2,0.7,0.7,1,1.4,0.8l5-1.2L269.6,109z"/>
	<path class="st12" d="M263.4,119c-0.3-0.5-0.5-1-0.6-1.6c-0.4-2.4,1.1-4.5,3.4-4.9c2.4-0.4,4.5,1.1,4.9,3.4c0.1,0.6,0.1,1.2,0,1.7
		l-2.3,0.4c0.3-0.5,0.5-1.1,0.3-1.8c-0.2-1.2-1.3-1.9-2.5-1.7c-1.2,0.2-2,1.3-1.8,2.4c0.1,0.7,0.5,1.3,0.9,1.6L263.4,119z"/>
	<path class="st12" d="M271.7,120.8l0.2,2l-2.9,0.3l3.1,1.3l0.3,2.4l-3.6-1.7l-4.5,2.7l-0.3-2.4l2.9-1.6l-0.8-0.4l-2.3,0.3l-0.2-2
		L271.7,120.8z"/>
	<path class="st12" d="M272.7,133.7l0,3c0,1.6-0.9,2.8-2.6,2.8s-2.7-1.1-2.7-2.7l0-0.9l-2.9,0l0-2L272.7,133.7z M270.8,136.6l0-0.9
		l-1.4,0l0,0.9c0,0.4,0.3,0.7,0.7,0.7C270.5,137.3,270.8,137,270.8,136.6z"/>
	<path class="st12" d="M272.7,142.3l-0.1,2l-8.2-0.3l0.1-2L272.7,142.3z"/>
	<path class="st12" d="M272.4,147.7l-0.2,2l-2.9-0.3l2.8,1.9l-0.2,2.4l-3.2-2.3l-5,1.7l0.2-2.4l3.2-1l-0.7-0.5l-2.3-0.2l0.2-2
		L272.4,147.7z"/>
	<path class="st12" d="M264.2,159.9l0.4-2.7l-1.4-0.7l0.4-2.3l7.6,4.3l-0.4,2.3l-8.5,1.7l0.4-2.3L264.2,159.9z M266.5,158.2
		l-0.2,1.4l2.1-0.4L266.5,158.2z"/>
	<path class="st12" d="M260.9,169.5c-0.1-0.6-0.1-1.2,0.1-1.7c0.5-2.3,2.7-3.7,5-3.1c2.3,0.5,3.7,2.7,3.2,5
		c-0.1,0.6-0.4,1.1-0.7,1.6l-2.3-0.5c0.5-0.3,0.8-0.8,1-1.5c0.3-1.2-0.5-2.3-1.6-2.5c-1.2-0.3-2.3,0.4-2.6,1.6
		c-0.2,0.7,0,1.4,0.2,1.8L260.9,169.5z"/>
	<path class="st12" d="M261.5,178l1-3.1l-3-0.9l0.6-1.9l7.8,2.4l-0.6,1.9l-2.9-0.9l-1,3.1l2.9,0.9l-0.6,1.9l-7.8-2.4l0.6-1.9
		L261.5,178z"/>
	<path class="st12" d="M262.2,190.6l-4.7-1.8c-1.9-0.8-2.6-2.4-1.9-4.2c0.7-1.8,2.3-2.5,4.2-1.8l4.7,1.8l-0.8,1.9l-4.8-1.9
		c-0.6-0.2-1.2,0-1.5,0.7c-0.3,0.7,0,1.2,0.6,1.5l4.8,1.9L262.2,190.6z"/>
	<path class="st12" d="M249.2,198.6l7.1,4l-1,1.8l-5.4-3.1l-1.4,2.4l-1.7-1L249.2,198.6z"/>
	<path class="st12" d="M249,214.5l-4.2-2.8c-1.7-1.1-2.1-2.8-1-4.5c1.1-1.6,2.8-2,4.5-0.9l4.2,2.8l-1.1,1.7l-4.3-2.8
		c-0.6-0.4-1.2-0.3-1.6,0.3s-0.2,1.2,0.3,1.6l4.3,2.8L249,214.5z"/>
	<path class="st12" d="M237.4,216.8c0.1-0.5,0.4-1.1,0.8-1.6c1.4-1.9,4-2.2,5.9-0.8c1.9,1.4,2.3,4,0.8,5.9c-0.4,0.5-0.8,0.9-1.3,1.2
		l-1.9-1.4c0.5-0.1,1.1-0.4,1.5-1c0.7-1,0.5-2.3-0.5-3c-1-0.7-2.3-0.6-3,0.4c-0.4,0.6-0.6,1.2-0.6,1.7L237.4,216.8z"/>
	<path class="st12" d="M241.7,224.1l-1.3,1.5l-2.2-1.9l1.2,3.2l-1.5,1.8l-1.2-3.7l-5.1-1.5l1.6-1.8l3.1,1l-0.3-0.8l-1.7-1.5l1.3-1.5
		L241.7,224.1z"/>
	<path class="st12" d="M231.4,228.6l5.1,1.5l-1.6,1.6l-2.8-0.9l1,2.8l-1.6,1.6l-1.5-5.2l-2.5-2.4l1.4-1.5L231.4,228.6z"/>
	<path class="st12" d="M217.6,236.7c0.3-0.5,0.6-1,1.1-1.4c1.8-1.5,4.4-1.3,5.9,0.5c1.5,1.8,1.3,4.4-0.5,5.9c-0.5,0.4-1,0.7-1.5,0.8
		l-1.5-1.8c0.5,0,1.2-0.2,1.7-0.6c0.9-0.8,1-2.1,0.2-3c-0.8-0.9-2.1-1.1-3-0.3c-0.6,0.5-0.9,1.1-0.9,1.6L217.6,236.7z"/>
	<path class="st12" d="M213,243.8l2.6-1.9l-1.8-2.5l1.7-1.2l4.8,6.6l-1.7,1.2l-1.8-2.5l-2.6,1.9l1.8,2.5l-1.7,1.2l-4.8-6.6l1.7-1.2
		L213,243.8z"/>
	<path class="st12" d="M205.9,254.3l-2.6-4.3c-1.1-1.8-0.7-3.4,1-4.5s3.3-0.6,4.4,1.1l2.6,4.3l-1.7,1.1l-2.7-4.4
		c-0.3-0.6-1-0.7-1.6-0.4s-0.7,1-0.4,1.6l2.7,4.4L205.9,254.3z"/>
	<path class="st12" d="M196.2,254.2l4.4,3.1l-2,1l-2.4-1.8l0,3l-2,1l0.3-5.4l-1.5-3.1l1.8-0.9L196.2,254.2z"/>
	<path class="st12" d="M188.8,262.8c-2.2,0.9-4.6-0.1-5.5-2.3c-0.9-2.2,0.1-4.6,2.3-5.5s4.6,0.1,5.5,2.3
		C192,259.6,191,261.9,188.8,262.8z M186.4,256.9c-1.1,0.4-1.6,1.7-1.1,2.8c0.4,1.1,1.7,1.7,2.8,1.2c1.1-0.4,1.6-1.7,1.1-2.8
		C188.7,257,187.5,256.5,186.4,256.9z"/>
	<path class="st12" d="M175.9,267.2l-1.5-4.8c-0.6-2,0.2-3.5,2.1-4.1c1.9-0.6,3.4,0.2,4,2.2l1.5,4.8l-1.9,0.6l-1.6-4.9
		c-0.2-0.6-0.8-0.9-1.4-0.7c-0.7,0.2-1,0.8-0.8,1.4l1.6,4.9L175.9,267.2z"/>
	<path class="st12" d="M172.6,268.1l-3,0.7c-1.6,0.4-2.9-0.2-3.2-1.7c-0.3-1.1,0.2-1.9,0.9-2.3c-1.2-0.3-2-1.6-2.5-3.2l2.1-0.5
		c0.6,1.5,1.4,2.6,2.4,2.4l0.2,0l-0.7-2.8l2-0.5L172.6,268.1z M169.2,266.9l1-0.2l-0.3-1.3l-1,0.2c-0.4,0.1-0.6,0.4-0.5,0.8
		C168.5,266.8,168.8,267,169.2,266.9z"/>
	<path class="st12" d="M153.5,269.2c0.6,0.2,1.4,0.3,2.2,0.2c1.2-0.2,2-1.2,1.8-2.4c-0.2-1.2-1.1-2-2.3-1.9
		c-1.1,0.1-1.6,0.9-1.5,1.5l0,0.1l1.7-0.2l0.2,1.8l-3.8,0.5c-0.1-0.3-0.2-0.8-0.3-1.2c-0.3-2.1,0.8-4.2,3.4-4.5
		c2.3-0.3,4.3,1.3,4.6,3.6c0.3,2.4-1.2,4.4-3.6,4.7c-0.8,0.1-1.7,0.1-2.2,0L153.5,269.2z"/>
	<path class="st12" d="M145.5,272.4c-2.4,0.1-4.3-1.6-4.4-4s1.6-4.3,4-4.4c2.4-0.1,4.3,1.6,4.4,4S147.9,272.2,145.5,272.4z
		 M145.2,266c-1.2,0.1-2,1.1-2,2.3c0.1,1.2,1,2.1,2.2,2.1c1.2-0.1,2-1.1,2-2.3C147.3,266.9,146.4,265.9,145.2,266z"/>
	<path class="st12" d="M134.5,272.5c-2.4-0.1-4.1-1.9-4.1-4.3s1.9-4.2,4.3-4.1c2.4,0.1,4.1,1.9,4.1,4.3S136.9,272.6,134.5,272.5z
		 M134.7,266.1c-1.2,0-2.1,0.9-2.2,2.1c0,1.2,0.8,2.2,2,2.2c1.2,0,2.1-0.9,2.2-2.1C136.8,267.1,135.9,266.1,134.7,266.1z"/>
	<path class="st12" d="M127.2,272l-3.1-0.3c-2.5-0.3-3.8-2.1-3.6-4.5c0.3-2.4,2-3.9,4.5-3.6l3.1,0.3L127.2,272z M125.4,269.8
		l0.5-4.2l-1-0.1c-1.3-0.1-2.1,0.7-2.2,1.9c-0.1,1.2,0.4,2.2,1.7,2.3L125.4,269.8z"/>
	<path class="st12" d="M114.8,262l-1.7,8l-2-0.4l1.3-6.1l-2.7-0.6l0.4-1.9L114.8,262z"/>
	<path class="st12" d="M99.6,266.7l1.3-4.8c0.6-2,2.1-2.8,4-2.3s2.8,2,2.2,4l-1.3,4.8l-2-0.5l1.4-5c0.2-0.6-0.1-1.2-0.8-1.4
		c-0.7-0.2-1.2,0.1-1.4,0.8l-1.4,5L99.6,266.7z"/>
	<path class="st12" d="M93.8,256.3c0.6,0,1.2,0.1,1.7,0.3c2.3,0.8,3.4,3.1,2.6,5.4s-3.1,3.4-5.4,2.6c-0.6-0.2-1.1-0.5-1.5-0.9
		l0.8-2.2c0.2,0.5,0.7,0.9,1.4,1.2c1.1,0.4,2.3-0.2,2.7-1.3c0.4-1.1-0.1-2.3-1.3-2.7c-0.7-0.2-1.4-0.2-1.8,0L93.8,256.3z"/>
	<path class="st12" d="M88.2,262.7l-1.9-0.8l1.2-2.7l-2.7,2.1l-2.2-0.9l3.2-2.3l-0.1-5.3l2.2,0.9l0,3.3l0.7-0.5l0.9-2.1l1.9,0.8
		L88.2,262.7z"/>
	<path class="st12" d="M76.5,257.2l-2.6-1.4c-1.4-0.8-1.9-2.2-1.1-3.7s2.3-1.8,3.7-1l0.8,0.4l1.4-2.5l1.8,1L76.5,257.2z M74.8,254.1
		l0.8,0.4l0.7-1.2l-0.8-0.4c-0.3-0.2-0.7-0.1-0.9,0.3S74.5,253.9,74.8,254.1z"/>
	<path class="st12" d="M69,253l-1.7-1.1l4.3-6.9l1.7,1.1L69,253z"/>
	<path class="st12" d="M64.4,250.1l-1.7-1.2l1.7-2.4l-3,1.5l-1.9-1.3l3.6-1.6l1-5.2l2,1.4l-0.7,3.2l0.8-0.4l1.3-1.9l1.7,1.2
		L64.4,250.1z"/>
	<path class="st12" d="M57.8,236.9l2.1,1.7l1.3-0.8l1.8,1.4l-7.4,4.5l-1.8-1.4l2.8-8.2l1.8,1.4L57.8,236.9z M58.2,239.7l-1.1-0.9
		l-0.7,2L58.2,239.7z"/>
	<path class="st12" d="M51.1,229.3c0.5,0.2,1,0.5,1.5,0.9c1.8,1.6,1.9,4.2,0.2,5.9c-1.6,1.8-4.2,1.9-5.9,0.3c-0.5-0.4-0.8-0.9-1-1.4
		l1.6-1.7c0,0.5,0.3,1.1,0.8,1.6c0.9,0.8,2.2,0.7,3-0.2c0.8-0.9,0.8-2.2-0.1-3c-0.5-0.5-1.2-0.7-1.7-0.7L51.1,229.3z"/>
	<path class="st12" d="M43.5,225.6l2.2,2.4l2.3-2.1l1.4,1.5l-5.9,5.6l-1.4-1.5l2.2-2.1l-2.2-2.4l-2.2,2.1l-1.4-1.5l5.9-5.6l1.4,1.5
		L43.5,225.6z"/>
	<path class="st12" d="M32.1,220l3.9-3.2c1.6-1.3,3.3-1.1,4.6,0.4c1.2,1.5,1.1,3.2-0.5,4.5l-3.9,3.2l-1.3-1.6l4-3.3
		c0.5-0.4,0.6-1,0.2-1.6c-0.5-0.6-1.1-0.6-1.6-0.2l-4,3.3L32.1,220z"/>
	<path class="st12" d="M31.5,204.8l-7,4.2l-1.1-1.7l5.3-3.2l-1.4-2.3l1.7-1L31.5,204.8z"/>
	<path class="st12" d="M17.8,196.8l4.5-2.3c1.8-1,3.5-0.4,4.4,1.3c0.9,1.7,0.4,3.4-1.5,4.3l-4.5,2.3l-0.9-1.8l4.6-2.4
		c0.6-0.3,0.8-0.9,0.5-1.5c-0.3-0.6-0.9-0.8-1.5-0.5l-4.6,2.4L17.8,196.8z"/>
	<path class="st12" d="M21.5,185.5c0.4,0.4,0.7,0.9,1,1.4c0.9,2.2,0,4.6-2.2,5.5s-4.6,0-5.5-2.2c-0.2-0.6-0.4-1.1-0.4-1.7l2.1-0.9
		c-0.2,0.5-0.2,1.2,0.1,1.8c0.5,1.1,1.7,1.5,2.8,1.1c1.1-0.5,1.6-1.7,1.2-2.8c-0.3-0.7-0.8-1.1-1.2-1.3L21.5,185.5z"/>
	<path class="st12" d="M13,185.7l-0.7-1.9l2.8-1l-3.3-0.6L11,180l3.8,0.8l3.8-3.7l0.8,2.2l-2.5,2.2l0.9,0.2l2.2-0.8l0.7,1.9
		L13,185.7z"/>
	<path class="st12" d="M14.3,174.5l-3.8,3.8l-0.6-2.2l2.2-2l-2.9-0.6l-0.6-2.2l5.2,1.2l3.3-0.9l0.6,2L14.3,174.5z"/>
	<path class="st12" d="M14,158.5c0.3,0.5,0.5,1,0.6,1.6c0.4,2.3-1,4.5-3.4,4.9c-2.3,0.4-4.5-1-4.9-3.4c-0.1-0.6-0.1-1.2,0-1.7
		l2.3-0.4c-0.3,0.5-0.4,1.1-0.3,1.8c0.2,1.2,1.3,1.9,2.5,1.7c1.2-0.2,2-1.3,1.8-2.5c-0.1-0.7-0.5-1.3-0.9-1.6L14,158.5z"/>
	<path class="st12" d="M10.1,151l0.4,3.2l3.1-0.3l0.2,2l-8.1,0.9l-0.2-2l3-0.3l-0.4-3.2l-3,0.3l-0.2-2l8.1-0.9l0.2,2L10.1,151z"/>
	<path class="st12" d="M4.4,139.6l5-0.2c2.1-0.1,3.3,1.1,3.4,3.1c0.1,2-1.1,3.2-3.2,3.3l-5,0.2l-0.1-2l5.2-0.2
		c0.7,0,1.1-0.5,1.1-1.2c0-0.7-0.5-1.1-1.2-1.1l-5.2,0.2L4.4,139.6z"/>
	<path class="st12" d="M9.3,131.2l-4.8,2.3l0.1-2.3l2.7-1.2l-2.6-1.5l0.1-2.3l4.5,2.9l3.4,0.2l-0.1,2L9.3,131.2z"/>
	<path class="st12" d="M5.5,120.5c0.3-2.4,2.4-3.9,4.7-3.6c2.4,0.3,3.9,2.3,3.6,4.7c-0.3,2.4-2.4,3.9-4.7,3.6
		C6.7,125,5.1,122.9,5.5,120.5z M11.8,121.4c0.2-1.2-0.7-2.2-1.9-2.4c-1.2-0.2-2.3,0.6-2.4,1.8c-0.2,1.2,0.7,2.2,1.9,2.4
		C10.5,123.3,11.6,122.6,11.8,121.4z"/>
	<path class="st12" d="M8,107.2l4.9,1c2,0.4,2.9,1.9,2.5,3.8s-1.8,2.9-3.9,2.4l-4.9-1l0.4-2l5.1,1.1c0.6,0.1,1.2-0.2,1.3-0.9
		c0.1-0.7-0.2-1.2-0.9-1.4l-5.1-1.1L8,107.2z"/>
	<path class="st12" d="M8.8,103.9l0.8-2.9c0.5-1.6,1.6-2.4,3.1-2c1.1,0.3,1.6,1.1,1.6,1.9c0.8-0.9,2.4-0.9,4-0.6l-0.6,2
		c-1.6-0.2-3,0-3.2,0.9l-0.1,0.2l2.7,0.8l-0.6,2L8.8,103.9z M11.6,101.5l-0.3,0.9l1.3,0.4l0.3-0.9c0.1-0.4,0-0.7-0.5-0.8
		C12,101,11.7,101.1,11.6,101.5z"/>
	<path class="st12" d="M17.3,86.7c-0.5,0.4-1,1.1-1.3,1.9c-0.4,1.1,0,2.3,1.2,2.8c1.1,0.4,2.3,0,2.8-1.1c0.4-1,0-1.9-0.6-2.1l-0.1,0
		l-0.6,1.6L17,89l1.4-3.5c0.3,0.1,0.8,0.2,1.2,0.4c2,0.8,3.3,2.7,2.3,5.2c-0.9,2.2-3.2,3.1-5.4,2.2c-2.2-0.9-3.2-3.2-2.3-5.5
		c0.3-0.7,0.7-1.5,1.1-1.9L17.3,86.7z"/>
	<path class="st12" d="M18.4,78.2c1.1-2.1,3.5-2.9,5.6-1.9c2.1,1.1,3,3.5,1.9,5.6s-3.5,2.9-5.6,1.9C18.2,82.8,17.4,80.3,18.4,78.2z
		 M24.2,81.1c0.5-1.1,0.1-2.3-1-2.8c-1.1-0.5-2.4-0.2-2.9,0.9c-0.5,1.1-0.1,2.3,1,2.8C22.3,82.5,23.6,82.1,24.2,81.1z"/>
	<path class="st12" d="M23.8,68.6c1.2-2,3.7-2.6,5.8-1.4c2,1.2,2.7,3.7,1.4,5.8c-1.2,2-3.7,2.6-5.8,1.4
		C23.2,73.1,22.5,70.6,23.8,68.6z M29.2,71.9c0.6-1,0.3-2.3-0.8-2.9c-1-0.6-2.3-0.4-2.9,0.7c-0.6,1-0.3,2.3,0.8,2.9
		C27.3,73.2,28.6,72.9,29.2,71.9z"/>
	<path class="st12" d="M27.8,62.5l1.8-2.5c1.5-2,3.7-2.3,5.7-0.9c1.9,1.4,2.4,3.6,0.9,5.7l-1.8,2.5L27.8,62.5z M30.6,62l3.4,2.5
		l0.6-0.8c0.8-1.1,0.4-2.1-0.6-2.8c-1-0.7-2.1-0.7-2.9,0.4L30.6,62z"/>
	<path class="st12" d="M42.6,56.6l-6.1-5.4l1.3-1.5l4.6,4.1l1.8-2.1l1.5,1.3L42.6,56.6z"/>
	<path class="st12" d="M46.1,41l3.5,3.6c1.5,1.5,1.4,3.2,0.1,4.6s-3.1,1.4-4.6-0.1l-3.5-3.6l1.4-1.4l3.7,3.7c0.5,0.5,1.1,0.5,1.6,0
		c0.5-0.5,0.5-1.1,0-1.6l-3.7-3.7L46.1,41z"/>
	<path class="st12" d="M57.9,41.2c-0.2,0.5-0.6,1-1.1,1.4c-1.8,1.6-4.4,1.4-5.9-0.4s-1.4-4.4,0.4-5.9c0.5-0.4,1-0.7,1.5-0.9l1.5,1.8
		c-0.5,0-1.2,0.2-1.7,0.6c-0.9,0.8-0.9,2.1-0.2,3c0.8,0.9,2.1,1,3,0.3c0.5-0.5,0.8-1.1,0.9-1.6L57.9,41.2z"/>
	<path class="st12" d="M55.1,33.2l1.6-1.2l1.8,2.3l-0.5-3.3l1.9-1.4l0.4,3.9l4.6,2.5l-1.9,1.4l-2.9-1.7l0.1,0.9l1.4,1.8l-1.6,1.2
		L55.1,33.2z"/>
	<path class="st12" d="M65.7,25.6l2.5-1.6c1.4-0.9,2.9-0.6,3.7,0.8c0.9,1.4,0.4,2.8-0.9,3.7L70.2,29l1.5,2.4L70,32.5L65.7,25.6z
		 M69.2,25.7l-0.8,0.5l0.7,1.2l0.8-0.5c0.3-0.2,0.5-0.6,0.2-0.9S69.5,25.5,69.2,25.7z"/>
	<path class="st12" d="M73,21.2l1.8-1l3.9,7.1l-1.8,1L73,21.2z"/>
	<path class="st12" d="M77.8,18.6l1.8-0.9l1.3,2.7l0.2-3.4l2.1-1l-0.4,3.9l4.1,3.4l-2.1,1l-2.5-2.2L82.2,23l1,2.1l-1.8,0.9
		L77.8,18.6z"/>
	<path class="st12" d="M92.5,19.3l-2.5,1l0.1,1.6L88,22.8l-0.2-8.7l2.1-0.8l5.8,6.5l-2.1,0.8L92.5,19.3z M89.9,18.3l1.3-0.5
		l-1.4-1.6L89.9,18.3z"/>
	<path class="st12" d="M102.5,17.3c-0.4,0.4-0.9,0.7-1.5,0.8c-2.3,0.7-4.6-0.4-5.3-2.7c-0.7-2.3,0.4-4.6,2.7-5.3
		c0.6-0.2,1.2-0.3,1.7-0.2l0.7,2.2c-0.5-0.2-1.1-0.3-1.8-0.1c-1.1,0.4-1.7,1.6-1.3,2.7c0.4,1.1,1.5,1.8,2.7,1.4
		c0.7-0.2,1.2-0.7,1.4-1.1L102.5,17.3z"/>
	<path class="st12" d="M109.5,12.4l-3.2,0.8l0.7,3l-2,0.5l-1.9-7.9l2-0.5l0.7,3l3.2-0.8l-0.7-3l2-0.5l1.9,7.9l-2,0.5L109.5,12.4z"/>
	<path class="st12" d="M119.9,5.3l0.8,4.9c0.3,2-0.7,3.4-2.6,3.7c-1.9,0.3-3.3-0.7-3.7-2.7l-0.8-4.9l2-0.3l0.8,5.1
		c0.1,0.7,0.6,1,1.3,0.9s1.1-0.6,1-1.3l-0.8-5.1L119.9,5.3z"/>
</g>

<style xmlns="http://www.w3.org/2000/svg" type="text/css">
	.st0{opacity:0.2;enable-background:new    ;}
	.st1{fill:#FFD600;}
	.st2{fill:#7C4106;}
	.st3{fill:#2AC106;}
	.st4{fill:#AD770B;}
	.st5{fill:#FFB000;}
	.st6{fill:none;}
	.st7{fill:#F9593A;}
	.st8{clip-path:url(#SVGID_2_);}
	.st9{fill:#FF1717;}
	.st10{fill:#FFE197;}
	.st11{display:none;opacity:0.1;enable-background:new    ;}
	.st12{fill:#FFC800;}

  @keyframes arm {
    0%, 100% { transform: rotate(-60deg); transform: rotate(-60deg);}
    50% { transform: rotate(15deg); transform: rotate(15deg);}
  }

  #arm {
		transform: translate(20px,10px);
	  transform-origin: 54% 57%;
	  animation: arm 5s cubic-bezier(0.645, 0.045, 0.355, 1) infinite;
  }

	@keyframes text {
		100% { transform: rotate(360deg);}
	}

	#text {
		transform-origin: 50% 50%;
		animation: text 88s linear infinite;
	}
</style>

</svg>
